<?xml version="1.0" encoding="UTF-8" standalone="no"?>
<svg width="49px" height="46px" viewBox="0 0 49 46" version="1.1" xmlns="http://www.w3.org/2000/svg" xmlns:xlink="http://www.w3.org/1999/xlink">
    <!-- Generator: sketchtool 3.7.2 (28276) - http://www.bohemiancoding.com/sketch -->
    <title>66EBCD9D-D4EB-4EFF-B329-B14731BA3B26</title>
    <desc>Created with sketchtool.</desc>
    <defs></defs>
    <g id="Page-1" stroke="none" stroke-width="1" fill="none" fill-rule="evenodd">
        <g id="Desktop-HD-Donor-Dashboard" transform="translate(-256.000000, -37.000000)">
            <g id="food-drivr-logo-grey" transform="translate(256.000000, 37.000000)">
                <g id="Page-1">
                    <g id="Group-11" transform="translate(0.000000, 0.452923)">
                        <path d="M32.7425,24.8727308 L29.469125,24.8727308 C28.98525,24.8727308 28.594125,24.4773077 28.594125,23.9881154 C28.594125,23.4989231 28.98525,23.1035 29.469125,23.1035 L32.7425,23.1035 C33.226375,23.1035 33.6175,23.4989231 33.6175,23.9881154 C33.6175,24.4773077 33.226375,24.8727308 32.7425,24.8727308 L32.7425,24.8727308 Z M9.081625,38.0260769 C8.343125,38.0260769 7.742,38.6338077 7.742,39.3804231 C7.742,40.1270385 8.343125,40.7338846 9.081625,40.7338846 C9.820125,40.7338846 10.42125,40.1261538 10.42125,39.3804231 C10.42125,38.6338077 9.820125,38.0260769 9.081625,38.0260769 L9.081625,38.0260769 Z M9.081625,42.504 C7.378,42.504 5.992,41.1027692 5.992,39.3813077 C5.992,37.6589615 7.378,36.2577308 9.081625,36.2577308 C10.78525,36.2577308 12.17125,37.6589615 12.17125,39.3813077 C12.17125,41.1027692 10.78525,42.504 9.081625,42.504 L9.081625,42.504 Z M36.71675,38.0260769 C35.977375,38.0260769 35.377125,38.6338077 35.377125,39.3804231 C35.377125,40.1270385 35.97825,40.7338846 36.71675,40.7338846 C37.45525,40.7338846 38.0555,40.1261538 38.0555,39.3804231 C38.0555,38.6338077 37.45525,38.0260769 36.71675,38.0260769 L36.71675,38.0260769 Z M36.71675,42.504 C35.013125,42.504 33.627125,41.1027692 33.627125,39.3813077 C33.627125,37.6589615 35.013125,36.2577308 36.71675,36.2577308 C38.4195,36.2577308 39.8055,37.6589615 39.8055,39.3813077 C39.8055,41.1027692 38.4195,42.504 36.71675,42.504 L36.71675,42.504 Z M30.344125,19.8198077 L43.199625,19.8198077 C41.95975,14.6890385 38.92525,10.3703462 34.89675,7.75984615 C34.778625,7.82 34.6465,7.85361538 34.5065,7.8545 L30.344125,7.87396154 L30.344125,19.8198077 L30.344125,19.8198077 Z M4.290125,23.1017308 L25.076625,23.1017308 L25.076625,7.8545 L4.290125,7.8545 L4.290125,23.1017308 Z M45.563,27.715 L45.563,30.2936538 C46.102,30.1193846 46.493125,29.6071923 46.493125,29.0038846 C46.493125,28.4014615 46.102,27.8892692 45.563,27.715 L45.563,27.715 Z M36.71675,33.6463462 C37.937375,33.6463462 39.097625,34.0338077 40.06275,34.7494615 C40.103875,34.7432692 40.14675,34.7397308 40.1905,34.7397308 L43.813,34.7397308 L43.813,25.001 C43.813,23.8386154 43.722875,22.6974615 43.5505,21.5890385 L29.469125,21.5890385 C28.98525,21.5890385 28.594125,21.1936154 28.594125,20.7044231 L28.594125,6.99288462 C28.594125,6.50634615 28.9835,6.11003846 29.46475,6.10826923 L31.60325,6.09853846 C30.090375,5.53415385 28.487375,5.19003846 26.82575,5.09980769 L26.82575,23.9881154 C26.82575,24.4958846 26.39875,24.8895385 25.895625,24.8709615 L25.767875,24.8709615 C25.7495,24.8718462 25.731125,24.8727308 25.71275,24.8727308 L1.794625,24.8727308 L1.794625,34.7397308 L5.747875,34.7397308 C7.67375,33.3199231 10.490375,33.3199231 12.41625,34.7397308 L24.836875,34.7397308 L24.836875,26.7649231 C24.836875,26.2757308 25.228,25.8803077 25.711875,25.8803077 C26.19575,25.8803077 26.586875,26.2757308 26.586875,26.7649231 L26.586875,34.7397308 L33.38125,34.7397308 C34.342875,34.0293846 35.5005,33.6463462 36.71675,33.6463462 L36.71675,33.6463462 Z M1.794625,37.4917692 L3.726625,37.4917692 C3.842125,37.1538462 3.990875,36.8247692 4.171125,36.5098462 L1.794625,36.5098462 L1.794625,37.4917692 Z M14.43575,37.4917692 L24.836875,37.4917692 L24.836875,36.5098462 L13.99125,36.5098462 C14.172375,36.8247692 14.32025,37.1538462 14.43575,37.4917692 L14.43575,37.4917692 Z M26.586875,37.4917692 L31.3565,37.4917692 C31.474625,37.1511923 31.623375,36.8221154 31.803625,36.5098462 L26.586875,36.5098462 L26.586875,37.4917692 Z M42.070875,37.4917692 L43.812125,37.4917692 L43.812125,36.5098462 L41.626375,36.5098462 C41.8075,36.8247692 41.9545,37.1538462 42.070875,37.4917692 L42.070875,37.4917692 Z M6.307875,42.1837692 C7.049875,42.9330385 8.035125,43.3452692 9.081625,43.3452692 C10.128125,43.3452692 11.113375,42.9321538 11.855375,42.1837692 C12.814375,41.2133462 13.171375,39.8598846 12.9255,38.6046154 C12.917625,38.5745385 12.910625,38.5435769 12.90625,38.5126154 C12.749625,37.8022692 12.399625,37.1290769 11.8545,36.5770769 C11.766125,36.4877308 11.675125,36.4036923 11.580625,36.3249615 C11.5675,36.3143462 11.554375,36.3037308 11.542125,36.2931154 C10.847375,35.7234231 9.988125,35.4155769 9.081625,35.4155769 C8.033375,35.4155769 7.049,35.8278077 6.307875,36.5761923 C4.77925,38.1216154 4.77925,40.6374615 6.307875,42.1837692 L6.307875,42.1837692 Z M32.8615,38.6373462 C32.816,38.8797308 32.79325,39.1283077 32.79325,39.3795385 C32.79325,40.4384231 33.201875,41.4345 33.943,42.1837692 C34.684125,42.9330385 35.669375,43.3452692 36.71675,43.3452692 C37.76325,43.3452692 38.7485,42.9330385 39.489625,42.1846538 C40.453,41.2098077 40.809125,39.8510385 40.558875,38.5922308 C40.55275,38.5701154 40.548375,38.5471154 40.544,38.525 C40.389125,37.8102308 40.03825,37.1317308 39.489625,36.5770769 C38.7485,35.8278077 37.764125,35.4155769 36.71675,35.4155769 C35.667625,35.4155769 34.682375,35.8278077 33.943875,36.5761923 C33.417125,37.1087308 33.058375,37.7642308 32.89475,38.4781154 C32.888625,38.5329615 32.87725,38.5869231 32.8615,38.6373462 L32.8615,38.6373462 Z M36.71675,45.1153846 C35.202125,45.1153846 33.777625,44.5182692 32.70575,43.4355 C31.633,42.3518462 31.04325,40.9116923 31.04325,39.3804231 C31.04325,39.3406154 31.044125,39.3008077 31.045,39.261 L14.749,39.261 C14.779625,40.7692692 14.2275,42.2872692 13.092625,43.4363846 C12.019,44.5200385 10.595375,45.1153846 9.081625,45.1153846 C7.567875,45.1153846 6.143375,44.5182692 5.0715,43.4355 C3.93575,42.2872692 3.383625,40.7692692 3.41425,39.261 L0.919625,39.261 C0.436625,39.261 0.044625,38.8655769 0.044625,38.3763846 L0.044625,35.9038846 C0.01575,35.8154231 0,35.7225385 0,35.6252308 C0,35.5279231 0.01575,35.4341538 0.044625,35.3465769 L0.044625,23.9881154 C0.044625,23.4989231 0.436625,23.1035 0.919625,23.1035 L2.540125,23.1035 L2.540125,6.96988462 C2.540125,6.48157692 2.932125,6.08526923 3.415125,6.08526923 L25.076625,6.08526923 L25.076625,4.19130769 C25.076625,3.703 25.46775,3.30669231 25.951625,3.30669231 C36.385125,3.30669231 44.94175,12.3678077 45.530625,23.7483846 C45.551625,23.8244615 45.563,23.9049615 45.563,23.9881154 L45.563,25.9077308 C47.074125,26.1103077 48.243125,27.4221923 48.243125,29.0038846 C48.243125,30.5864615 47.07325,31.8974615 45.563,32.1009231 L45.563,38.3763846 C45.563,38.8655769 45.171875,39.261 44.688,39.261 L42.384125,39.261 C42.41475,40.7692692 41.862625,42.2872692 40.726875,43.4363846 C39.655,44.5191538 38.231375,45.1153846 36.71675,45.1153846 L36.71675,45.1153846 Z" id="Fill-1" fill="#C5C5C5"></path>
                        <path d="M14.4590164,0.431692308 L14.4590164,23.9881154" id="Stroke-3" stroke="#C5C5C5" stroke-width="1.5999999" stroke-linecap="round"></path>
                        <path d="M3.399375,11.2982456 L25.858,11.2982456" id="Stroke-5" stroke="#C5C5C5" stroke-width="1.5999999" stroke-linecap="round"></path>
                        <path d="M10.417575,2.42207692 L14.710325,6.762" id="Stroke-7" stroke="#C5C5C5" stroke-width="1.5999999" stroke-linecap="round"></path>
                        <path d="M18.9216125,2.42207692 L14.6288625,6.762" id="Stroke-9" stroke="#C5C5C5" stroke-width="1.5999999" stroke-linecap="round"></path>
                    </g>
                    <text id="FD" font-family="DemingEP, Deming EP" font-size="4.88923685" font-weight="500" fill="#C5C5C5">
                        <tspan x="8.75" y="32.3076923">FD</tspan>
                    </text>
                </g>
            </g>
        </g>
    </g>
</svg>