<?xml version="1.0" encoding="UTF-8" standalone="no"?>
<svg width="46px" height="44px" viewBox="0 0 46 44" version="1.1" xmlns="http://www.w3.org/2000/svg" xmlns:xlink="http://www.w3.org/1999/xlink">
    <!-- Generator: sketchtool 3.7.1 (28215) - http://www.bohemiancoding.com/sketch -->
    <title>Group Copy</title>
    <desc>Created with sketchtool.</desc>
    <defs></defs>
    <g id="Page-1" stroke="none" stroke-width="1" fill="none" fill-rule="evenodd">
        <g id="Desktop-HD" transform="translate(-697.000000, -106.000000)">
            <g id="Group-Copy" transform="translate(697.000000, 106.000000)">
                <g id="Page-1">
                    <g id="Group-11" transform="translate(0.000000, 0.433231)">
                        <path d="M31.1081928,23.7913077 L27.9982048,23.7913077 C27.5384819,23.7913077 27.1668795,23.4130769 27.1668795,22.9451538 C27.1668795,22.4772308 27.5384819,22.099 27.9982048,22.099 L31.1081928,22.099 C31.5679157,22.099 31.9395181,22.4772308 31.9395181,22.9451538 C31.9395181,23.4130769 31.5679157,23.7913077 31.1081928,23.7913077 L31.1081928,23.7913077 Z M8.6283253,36.3727692 C7.92668675,36.3727692 7.35556627,36.9540769 7.35556627,37.6682308 C7.35556627,38.3823846 7.92668675,38.9628462 8.6283253,38.9628462 C9.32996386,38.9628462 9.90108434,38.3815385 9.90108434,37.6682308 C9.90108434,36.9540769 9.32996386,36.3727692 8.6283253,36.3727692 L8.6283253,36.3727692 Z M8.6283253,40.656 C7.00973494,40.656 5.69291566,39.3156923 5.69291566,37.6690769 C5.69291566,36.0216154 7.00973494,34.6813077 8.6283253,34.6813077 C10.2469157,34.6813077 11.5637349,36.0216154 11.5637349,37.6690769 C11.5637349,39.3156923 10.2469157,40.656 8.6283253,40.656 L8.6283253,40.656 Z M34.8840723,36.3727692 C34.1816024,36.3727692 33.6113133,36.9540769 33.6113133,37.6682308 C33.6113133,38.3823846 34.1824337,38.9628462 34.8840723,38.9628462 C35.5857108,38.9628462 36.156,38.3815385 36.156,37.6682308 C36.156,36.9540769 35.5857108,36.3727692 34.8840723,36.3727692 L34.8840723,36.3727692 Z M34.8840723,40.656 C33.2654819,40.656 31.9486627,39.3156923 31.9486627,37.6690769 C31.9486627,36.0216154 33.2654819,34.6813077 34.8840723,34.6813077 C36.5018313,34.6813077 37.8186506,36.0216154 37.8186506,37.6690769 C37.8186506,39.3156923 36.5018313,40.656 34.8840723,40.656 L34.8840723,40.656 Z M28.8295301,18.9580769 L41.0433614,18.9580769 C39.8653735,14.0503846 36.9823373,9.91946154 33.1549157,7.42246154 C33.0426867,7.48 32.9171566,7.51215385 32.7841446,7.513 L28.8295301,7.53161538 L28.8295301,18.9580769 L28.8295301,18.9580769 Z M4.07598795,22.0973077 L23.8249518,22.0973077 L23.8249518,7.513 L4.07598795,7.513 L4.07598795,22.0973077 Z M43.2887711,26.51 L43.2887711,28.9765385 C43.8008675,28.8098462 44.1724699,28.3199231 44.1724699,27.7428462 C44.1724699,27.1666154 43.8008675,26.6766923 43.2887711,26.51 L43.2887711,26.51 Z M34.8840723,32.1834615 C36.0437711,32.1834615 37.1461084,32.5540769 38.0630602,33.2386154 C38.1021325,33.2326923 38.1428675,33.2293077 38.1844337,33.2293077 L41.6261205,33.2293077 L41.6261205,23.914 C41.6261205,22.8021538 41.540494,21.7106154 41.3767229,20.6503846 L27.9982048,20.6503846 C27.5384819,20.6503846 27.1668795,20.2721538 27.1668795,19.8042308 L27.1668795,6.68884615 C27.1668795,6.22346154 27.5368193,5.84438462 27.9940482,5.84269231 L30.0258072,5.83338462 C28.5884458,5.29353846 27.0654578,4.96438462 25.4867711,4.87807692 L25.4867711,22.9451538 C25.4867711,23.4308462 25.0810843,23.8073846 24.6030723,23.7896154 L24.4816988,23.7896154 C24.464241,23.7904615 24.4467831,23.7913077 24.4293253,23.7913077 L1.70504819,23.7913077 L1.70504819,33.2293077 L5.4609759,33.2293077 C7.29072289,31.8712308 9.96675904,31.8712308 11.796506,33.2293077 L23.5971687,33.2293077 L23.5971687,25.6012308 C23.5971687,25.1333077 23.9687711,24.7550769 24.428494,24.7550769 C24.8882169,24.7550769 25.2598193,25.1333077 25.2598193,25.6012308 L25.2598193,33.2293077 L31.7150602,33.2293077 C32.6286867,32.5498462 33.7285301,32.1834615 34.8840723,32.1834615 L34.8840723,32.1834615 Z M1.70504819,35.8616923 L3.54061446,35.8616923 C3.6503494,35.5384615 3.7916747,35.2236923 3.96292771,34.9224615 L1.70504819,34.9224615 L1.70504819,35.8616923 Z M13.7152048,35.8616923 L23.5971687,35.8616923 L23.5971687,34.9224615 L13.2928916,34.9224615 C13.4649759,35.2236923 13.6054699,35.5384615 13.7152048,35.8616923 L13.7152048,35.8616923 Z M25.2598193,35.8616923 L29.7913735,35.8616923 C29.9036024,35.5359231 30.0449277,35.2211538 30.2161807,34.9224615 L25.2598193,34.9224615 L25.2598193,35.8616923 Z M39.9709518,35.8616923 L41.6252892,35.8616923 L41.6252892,34.9224615 L39.5486386,34.9224615 C39.7207229,35.2236923 39.8603855,35.5384615 39.9709518,35.8616923 L39.9709518,35.8616923 Z M5.9930241,40.3496923 C6.69798795,41.0663846 7.63406024,41.4606923 8.6283253,41.4606923 C9.62259036,41.4606923 10.5586627,41.0655385 11.2636265,40.3496923 C12.174759,39.4214615 12.5139398,38.1268462 12.2803373,36.9261538 C12.2728554,36.8973846 12.2662048,36.8677692 12.2620482,36.8381538 C12.113241,36.1586923 11.7807108,35.5147692 11.2627952,34.9867692 C11.1788313,34.9013077 11.0923735,34.8209231 11.0025904,34.7456154 C10.9901205,34.7354615 10.9776506,34.7253077 10.966012,34.7151538 C10.3059398,34.1702308 9.48957831,33.8757692 8.6283253,33.8757692 C7.63239759,33.8757692 6.69715663,34.2700769 5.9930241,34.9859231 C4.5406988,36.4641538 4.5406988,38.8706154 5.9930241,40.3496923 L5.9930241,40.3496923 Z M31.221253,36.9574615 C31.1780241,37.1893077 31.1564096,37.4270769 31.1564096,37.6673846 C31.1564096,38.6802308 31.5446386,39.633 32.2487711,40.3496923 C32.9529036,41.0663846 33.8889759,41.4606923 34.8840723,41.4606923 C35.8783373,41.4606923 36.8144096,41.0663846 37.5185422,40.3505385 C38.4338313,39.4180769 38.7721807,38.1183846 38.5344217,36.9143077 C38.5286024,36.8931538 38.5244458,36.8711538 38.5202892,36.85 C38.3731446,36.1663077 38.0397831,35.5173077 37.5185422,34.9867692 C36.8144096,34.2700769 35.8791687,33.8757692 34.8840723,33.8757692 C33.8873133,33.8757692 32.951241,34.2700769 32.2496024,34.9859231 C31.7491446,35.4953077 31.4083012,36.1223077 31.2528434,36.8051538 C31.2470241,36.8576154 31.2362169,36.9092308 31.221253,36.9574615 L31.221253,36.9574615 Z M34.8840723,43.1538462 C33.4450482,43.1538462 32.0916506,42.5826923 31.0732771,41.547 C30.0540723,40.5104615 29.493759,39.1329231 29.493759,37.6682308 C29.493759,37.6301538 29.4945904,37.5920769 29.4954217,37.554 L14.0128193,37.554 C14.0419157,38.9966923 13.5173494,40.4486923 12.4391205,41.5478462 C11.4190843,42.5843846 10.0665181,43.1538462 8.6283253,43.1538462 C7.19013253,43.1538462 5.83673494,42.5826923 4.81836145,41.547 C3.7393012,40.4486923 3.21473494,38.9966923 3.24383133,37.554 L0.873722892,37.554 C0.414831325,37.554 0.0423975904,37.1757692 0.0423975904,36.7078462 L0.0423975904,34.3428462 C0.0149638554,34.2582308 0,34.1693846 0,34.0763077 C0,33.9832308 0.0149638554,33.8935385 0.0423975904,33.8097692 L0.0423975904,22.9451538 C0.0423975904,22.4772308 0.414831325,22.099 0.873722892,22.099 L2.41333735,22.099 L2.41333735,6.66684615 C2.41333735,6.19976923 2.78577108,5.82069231 3.24466265,5.82069231 L23.8249518,5.82069231 L23.8249518,4.00907692 C23.8249518,3.542 24.1965542,3.16292308 24.6562771,3.16292308 C34.569,3.16292308 42.6985301,11.8300769 43.258012,22.7158462 C43.2779639,22.7886154 43.2887711,22.8656154 43.2887711,22.9451538 L43.2887711,24.7813077 C44.7244699,24.9750769 45.8351205,26.2299231 45.8351205,27.7428462 C45.8351205,29.2566154 44.7236386,30.5106154 43.2887711,30.7052308 L43.2887711,36.7078462 C43.2887711,37.1757692 42.9171687,37.554 42.4574458,37.554 L40.2685663,37.554 C40.2976627,38.9966923 39.7730964,40.4486923 38.6940361,41.5478462 C37.6756627,42.5835385 36.3230964,43.1538462 34.8840723,43.1538462 L34.8840723,43.1538462 Z" id="Fill-1" fill="#FFFFFF"></path>
                        <path d="M13.9504699,0.412923077 L13.9504699,22.9451538" id="Stroke-3" stroke="#FFFFFF" stroke-width="1.68" stroke-linecap="round"></path>
                        <path d="M3.2296988,10.9193615 L24.5673253,10.9193615" id="Stroke-5" stroke="#FFFFFF" stroke-width="1.68" stroke-linecap="round"></path>
                        <path d="M9.89759277,2.31676923 L13.9760747,6.468" id="Stroke-7" stroke="#FFFFFF" stroke-width="1.68" stroke-linecap="round"></path>
                        <path d="M17.9771602,2.31676923 L13.8986783,6.468" id="Stroke-9" stroke="#FFFFFF" stroke-width="1.68" stroke-linecap="round"></path>
                    </g>
                    <text id="FD" font-family="DemingEP, Deming EP" font-size="4.712904" font-weight="500" fill="#FFFFFF">
                        <tspan x="8.31325301" y="31.0769231">FD</tspan>
                    </text>
                </g>
            </g>
        </g>
    </g>
</svg>