<?xml version="1.0" encoding="UTF-8" standalone="no"?>
<svg width="83px" height="71px" viewBox="0 0 83 71" version="1.1" xmlns="http://www.w3.org/2000/svg" xmlns:xlink="http://www.w3.org/1999/xlink">
    <!-- Generator: Sketch 3.7.1 (28215) - http://www.bohemiancoding.com/sketch -->
    <title>Page 1</title>
    <desc>Created with Sketch.</desc>
    <defs></defs>
    <g id="Page-1" stroke="none" stroke-width="1" fill="none" fill-rule="evenodd">
        <g id="Desktop-HD-Signup-Choice" transform="translate(-675.000000, -292.000000)" fill="#FFFFFF">
            <path d="M731.331913,328.623693 L725.700227,328.623693 C724.867743,328.623693 724.194831,327.952181 724.194831,327.121429 C724.194831,326.290677 724.867743,325.619166 725.700227,325.619166 L731.331913,325.619166 C732.164396,325.619166 732.837308,326.290677 732.837308,327.121429 C732.837308,327.952181 732.164396,328.623693 731.331913,328.623693 L731.331913,328.623693 Z M690.624503,350.960857 C689.353949,350.960857 688.319742,351.992912 688.319742,353.260823 C688.319742,354.528733 689.353949,355.559287 690.624503,355.559287 C691.895058,355.559287 692.929265,354.527231 692.929265,353.260823 C692.929265,351.992912 691.895058,350.960857 690.624503,350.960857 L690.624503,350.960857 Z M690.624503,358.565317 C687.693498,358.565317 685.308951,356.185731 685.308951,353.262325 C685.308951,350.337417 687.693498,347.957831 690.624503,347.957831 C693.555509,347.957831 695.940056,350.337417 695.940056,353.262325 C695.940056,356.185731 693.555509,358.565317 690.624503,358.565317 L690.624503,358.565317 Z M738.169421,350.960857 C736.897361,350.960857 735.864659,351.992912 735.864659,353.260823 C735.864659,354.528733 736.898866,355.559287 738.169421,355.559287 C739.439975,355.559287 740.472676,354.527231 740.472676,353.260823 C740.472676,351.992912 739.439975,350.960857 738.169421,350.960857 L738.169421,350.960857 Z M738.169421,358.565317 C735.238415,358.565317 732.853868,356.185731 732.853868,353.262325 C732.853868,350.337417 735.238415,347.957831 738.169421,347.957831 C741.098921,347.957831 743.483468,350.337417 743.483468,353.262325 C743.483468,356.185731 741.098921,358.565317 738.169421,358.565317 L738.169421,358.565317 Z M727.205623,320.042762 L749.322898,320.042762 C747.189752,311.329631 741.96904,303.995578 735.038197,299.562397 C734.834969,299.664551 734.607654,299.721637 734.366791,299.723139 L727.205623,299.756189 L727.205623,320.042762 L727.205623,320.042762 Z M753.388973,333.450468 L753.388973,337.829567 C754.316296,337.533621 754.989208,336.66381 754.989208,335.639266 C754.989208,334.616224 754.316296,333.746414 753.388973,333.450468 L753.388973,333.450468 Z M738.169421,343.523148 C740.269448,343.523148 742.265603,344.181139 743.926054,345.396471 C743.996808,345.385955 744.070572,345.379946 744.145842,345.379946 L750.378181,345.379946 L750.378181,328.841522 C750.378181,326.867547 750.223125,324.929626 749.926562,323.04729 L725.700227,323.04729 C724.867743,323.04729 724.194831,322.375778 724.194831,321.545026 L724.194831,298.259934 C724.194831,297.433689 724.864732,296.760675 725.6927,296.75767 L729.371887,296.741145 C726.769058,295.782701 724.011173,295.19832 721.152426,295.045089 L721.152426,327.121429 C721.152426,327.983729 720.417793,328.652236 719.55219,328.620689 L719.332402,328.620689 C719.300789,328.622191 719.269176,328.623693 719.237562,328.623693 L678.087567,328.623693 L678.087567,345.379946 L684.888945,345.379946 C688.202322,342.968812 693.048191,342.968812 696.361567,345.379946 L717.730661,345.379946 L717.730661,331.837036 C717.730661,331.006284 718.403573,330.334772 719.236057,330.334772 C720.068541,330.334772 720.741453,331.006284 720.741453,331.837036 L720.741453,345.379946 L732.430852,345.379946 C734.085282,344.173628 736.07692,343.523148 738.169421,343.523148 L738.169421,343.523148 Z M678.087567,350.053489 L681.411481,350.053489 C681.610193,349.479624 681.86611,348.920782 682.176222,348.385976 L678.087567,348.385976 L678.087567,350.053489 Z M699.836021,350.053489 L717.730661,350.053489 L717.730661,348.385976 L699.07128,348.385976 C699.382897,348.920782 699.637308,349.479624 699.836021,350.053489 L699.836021,350.053489 Z M720.741453,350.053489 L728.947366,350.053489 C729.150594,349.475117 729.406511,348.916275 729.716623,348.385976 L720.741453,348.385976 L720.741453,350.053489 Z M747.380938,350.053489 L750.376675,350.053489 L750.376675,348.385976 L746.616197,348.385976 C746.927814,348.920782 747.18072,349.479624 747.380938,350.053489 L747.380938,350.053489 Z M685.852399,358.021497 C687.128974,359.293915 688.82405,359.99397 690.624503,359.99397 C692.424957,359.99397 694.120033,359.292413 695.396608,358.021497 C697.046522,356.373514 697.660724,354.07505 697.237707,351.943337 C697.224159,351.89226 697.212116,351.839681 697.204589,351.787102 C696.935123,350.580784 696.332965,349.437561 695.395103,348.500148 C695.243058,348.348419 695.086497,348.205704 694.923914,348.072003 C694.901333,348.053976 694.878752,348.035949 694.857677,348.017921 C693.662392,347.050463 692.184094,346.527676 690.624503,346.527676 C688.821039,346.527676 687.127469,347.227731 685.852399,348.498646 C683.222472,351.123101 683.222472,355.39554 685.852399,358.021497 L685.852399,358.021497 Z M731.536646,351.998921 C731.458366,352.410541 731.419226,352.832677 731.419226,353.25932 C731.419226,355.05753 732.122245,356.74908 733.397316,358.021497 C734.672386,359.293915 736.367462,359.99397 738.169421,359.99397 C739.969874,359.99397 741.66495,359.293915 742.94002,358.022999 C744.597461,356.367505 745.210157,354.060027 744.779614,351.922305 C744.769076,351.884749 744.761549,351.84569 744.754022,351.808133 C744.487567,350.594304 743.883903,349.442068 742.94002,348.500148 C741.66495,347.227731 739.971379,346.527676 738.169421,346.527676 C736.364451,346.527676 734.669375,347.227731 733.398821,348.498646 C732.492573,349.403009 731.87536,350.516186 731.593851,351.728513 C731.583314,351.821654 731.563744,351.913292 731.536646,351.998921 L731.536646,351.998921 Z M738.169421,363 C735.56358,363 733.112796,361.985972 731.268686,360.147201 C729.423071,358.306927 728.408434,355.861242 728.408434,353.260823 C728.408434,353.193221 728.409939,353.125619 728.411445,353.058017 L700.374952,353.058017 C700.427641,355.619377 699.477736,358.197262 697.525238,360.148703 C695.678117,361.988976 693.228838,363 690.624503,363 C688.020169,363 685.569384,361.985972 683.725274,360.147201 C681.771271,358.197262 680.821366,355.619377 680.874055,353.058017 L676.582171,353.058017 C675.751193,353.058017 675.076775,352.386505 675.076775,351.555753 L675.076775,347.356925 C675.027097,347.206699 675,347.048961 675,346.883712 C675,346.718463 675.027097,346.559223 675.076775,346.410499 L675.076775,327.121429 C675.076775,326.290677 675.751193,325.619166 676.582171,325.619166 L717.730661,325.619166 L718.14314,293.502264 C718.14314,292.673014 718.816052,292 719.648535,292 C737.598875,292 752.320141,307.38769 753.333273,326.714316 C753.369402,326.843511 753.388973,326.980217 753.388973,327.121429 L753.388973,330.381342 C755.988791,330.725361 758,332.953218 758,335.639266 C758,338.326816 755.987286,340.553172 753.388973,340.898692 L753.388973,351.555753 C753.388973,352.386505 752.716061,353.058017 751.883577,353.058017 L747.919869,353.058017 C747.972558,355.619377 747.022653,358.197262 745.06865,360.148703 C743.22454,361.987474 740.775261,363 738.169421,363 L738.169421,363 Z" id="Page-1"></path>
        </g>
    </g>
</svg>