<?xml version="1.0" encoding="UTF-8" standalone="no"?>
<svg width="28px" height="28px" viewBox="0 0 28 28" version="1.1" xmlns="http://www.w3.org/2000/svg" xmlns:xlink="http://www.w3.org/1999/xlink">
    <!-- Generator: Sketch 3.7.1 (28215) - http://www.bohemiancoding.com/sketch -->
    <title>Facebook Icon</title>
    <desc>Created with Sketch.</desc>
    <defs></defs>
    <g id="Page-1" stroke="none" stroke-width="1" fill="none" fill-rule="evenodd">
        <g id="Desktop-HD" transform="translate(-307.000000, -3172.000000)" fill="#FFFFFF">
            <path d="M323.35,3186 L321.84,3186 L321.84,3191.47 L319.58,3191.47 L319.58,3186 L318.45,3186 L318.45,3184.11 L319.58,3184.11 L319.58,3182.98 C319.58,3181.44 320.22,3180.53 322.03,3180.53 L323.54,3180.53 L323.54,3182.42 L322.6,3182.42 C321.89,3182.42 321.84,3182.68 321.84,3183.17 L321.84,3184.11 L323.55,3184.11 L323.35,3186 L323.35,3186 Z M307,3186 C307,3193.73 313.27,3200 321,3200 C328.73,3200 335,3193.73 335,3186 C335,3178.27 328.73,3172 321,3172 C313.27,3172 307,3178.27 307,3186 Z" id="Facebook-Icon"></path>
        </g>
    </g>
</svg>