<?xml version="1.0" encoding="UTF-8" standalone="no"?>
<svg width="34px" height="33px" viewBox="0 0 34 33" version="1.1" xmlns="http://www.w3.org/2000/svg" xmlns:xlink="http://www.w3.org/1999/xlink">
    <!-- Generator: sketchtool 3.7.1 (28215) - http://www.bohemiancoding.com/sketch -->
    <title>Group 11</title>
    <desc>Created with sketchtool.</desc>
    <defs></defs>
    <g id="Page-1" stroke="none" stroke-width="1" fill="none" fill-rule="evenodd">
        <g id="Desktop-HD" transform="translate(-1097.000000, -1260.000000)">
            <g id="Group-11" transform="translate(1097.000000, 1261.000000)">
                <path d="M22.8208719,17.0024615 L20.5393945,17.0024615 C20.2021433,17.0024615 19.9295369,16.7273846 19.9295369,16.3870769 C19.9295369,16.0467692 20.2021433,15.7716923 20.5393945,15.7716923 L22.8208719,15.7716923 C23.1581231,15.7716923 23.4307295,16.0467692 23.4307295,16.3870769 C23.4307295,16.7273846 23.1581231,17.0024615 22.8208719,17.0024615 L22.8208719,17.0024615 Z M6.32971216,26.1526154 C5.81499233,26.1526154 5.39602015,26.5753846 5.39602015,27.0947692 C5.39602015,27.6141538 5.81499233,28.0363077 6.32971216,28.0363077 C6.84443198,28.0363077 7.26340416,27.6135385 7.26340416,27.0947692 C7.26340416,26.5753846 6.84443198,26.1526154 6.32971216,26.1526154 L6.32971216,26.1526154 Z M6.32971216,29.2676923 C5.14231939,29.2676923 4.17630493,28.2929231 4.17630493,27.0953846 C4.17630493,25.8972308 5.14231939,24.9224615 6.32971216,24.9224615 C7.51710493,24.9224615 8.48311939,25.8972308 8.48311939,27.0953846 C8.48311939,28.2929231 7.51710493,29.2676923 6.32971216,29.2676923 L6.32971216,29.2676923 Z M25.5908451,26.1526154 C25.0755154,26.1526154 24.6571531,26.5753846 24.6571531,27.0947692 C24.6571531,27.6141538 25.0761253,28.0363077 25.5908451,28.0363077 C26.105565,28.0363077 26.5239273,27.6135385 26.5239273,27.0947692 C26.5239273,26.5753846 26.105565,26.1526154 25.5908451,26.1526154 L25.5908451,26.1526154 Z M25.5908451,29.2676923 C24.4034524,29.2676923 23.4374379,28.2929231 23.4374379,27.0953846 C23.4374379,25.8972308 24.4034524,24.9224615 25.5908451,24.9224615 C26.777628,24.9224615 27.7436425,25.8972308 27.7436425,27.0953846 C27.7436425,28.2929231 26.777628,29.2676923 25.5908451,29.2676923 L25.5908451,29.2676923 Z M21.1492521,13.4873846 L30.1092802,13.4873846 C29.2451119,9.91815385 27.1301257,6.91384615 24.3223413,5.09784615 C24.2400105,5.13969231 24.147922,5.16307692 24.0503448,5.16369231 L21.1492521,5.17723077 L21.1492521,13.4873846 L21.1492521,13.4873846 Z M2.99013187,15.7704615 L17.4779093,15.7704615 L17.4779093,5.16369231 L2.99013187,5.16369231 L2.99013187,15.7704615 Z M31.7565056,18.9796923 L31.7565056,20.7735385 C32.1321779,20.6523077 32.4047842,20.296 32.4047842,19.8763077 C32.4047842,19.4572308 32.1321779,19.1009231 31.7565056,18.9796923 L31.7565056,18.9796923 Z M25.5908451,23.1058462 C26.4415965,23.1058462 27.2502677,23.3753846 27.9229406,23.8732308 C27.9516039,23.8689231 27.981487,23.8664615 28.0119798,23.8664615 L30.5367904,23.8664615 L30.5367904,17.0916923 C30.5367904,16.2830769 30.473975,15.4892308 30.3538331,14.7181538 L20.5393945,14.7181538 C20.2021433,14.7181538 19.9295369,14.4430769 19.9295369,14.1027692 L19.9295369,4.56430769 C19.9295369,4.22584615 20.2009235,3.95015385 20.5363452,3.94892308 L22.0268372,3.94215385 C20.9723934,3.54953846 19.8551343,3.31015385 18.6970147,3.24738462 L18.6970147,16.3870769 C18.6970147,16.7403077 18.3994042,17.0141538 18.048736,17.0012308 L17.9596968,17.0012308 C17.9468898,17.0018462 17.9340828,17.0024615 17.9212758,17.0024615 L1.25081796,17.0024615 L1.25081796,23.8664615 L4.00615465,23.8664615 C5.34845126,22.8787692 7.31158291,22.8787692 8.65387952,23.8664615 L17.3108083,23.8664615 L17.3108083,18.3187692 C17.3108083,17.9784615 17.5834147,17.7033846 17.9206659,17.7033846 C18.2579172,17.7033846 18.5305235,17.9784615 18.5305235,18.3187692 L18.5305235,23.8664615 L23.2660679,23.8664615 C23.9363014,23.3723077 24.743143,23.1058462 25.5908451,23.1058462 L25.5908451,23.1058462 Z M1.25081796,25.7809231 L2.59738357,25.7809231 C2.67788478,25.5458462 2.78156057,25.3169231 2.90719124,25.0978462 L1.25081796,25.0978462 L1.25081796,25.7809231 Z M10.0614309,25.7809231 L17.3108083,25.7809231 L17.3108083,25.0978462 L9.75162322,25.0978462 C9.87786375,25.3169231 9.98092968,25.5458462 10.0614309,25.7809231 L10.0614309,25.7809231 Z M18.5305235,25.7809231 L21.8548574,25.7809231 C21.9371882,25.544 22.040864,25.3150769 22.1664946,25.0978462 L18.5305235,25.0978462 L18.5305235,25.7809231 Z M29.3225639,25.7809231 L30.5361805,25.7809231 L30.5361805,25.0978462 L29.0127562,25.0978462 C29.1389967,25.3169231 29.2414528,25.5458462 29.3225639,25.7809231 L29.3225639,25.7809231 Z M4.39646353,29.0449231 C4.91362278,29.5661538 5.60032245,29.8529231 6.32971216,29.8529231 C7.05910186,29.8529231 7.74580153,29.5655385 8.26296079,29.0449231 C8.93136473,28.3698462 9.18018664,27.4283077 9.00881665,26.5550769 C9.00332793,26.5341538 8.99844907,26.5126154 8.99539978,26.4910769 C8.88623527,25.9969231 8.64229222,25.5286154 8.26235093,25.1446154 C8.20075531,25.0824615 8.13733012,25.024 8.0714655,24.9692308 C8.06231763,24.9618462 8.05316977,24.9544615 8.04463176,24.9470769 C7.56040482,24.5507692 6.96152464,24.3366154 6.32971216,24.3366154 C5.59910274,24.3366154 4.91301292,24.6233846 4.39646353,25.144 C3.33104228,26.2190769 3.33104228,27.9692308 4.39646353,29.0449231 L4.39646353,29.0449231 Z M22.9038125,26.5778462 C22.8720999,26.7464615 22.8562436,26.9193846 22.8562436,27.0941538 C22.8562436,27.8307692 23.1410471,28.5236923 23.6575965,29.0449231 C24.1741459,29.5661538 24.8608456,29.8529231 25.5908451,29.8529231 C26.3202348,29.8529231 27.0069345,29.5661538 27.5234839,29.0455385 C28.1949371,28.3673846 28.4431492,27.4221538 28.2687299,26.5464615 C28.2644609,26.5310769 28.2614116,26.5150769 28.2583623,26.4996923 C28.1504175,26.0024615 27.9058646,25.5304615 27.5234839,25.1446154 C27.0069345,24.6233846 26.3208447,24.3366154 25.5908451,24.3366154 C24.8596258,24.3366154 24.1729262,24.6233846 23.6582064,25.144 C23.2910721,25.5144615 23.0410304,25.9704615 22.9269871,26.4670769 C22.9227181,26.5052308 22.9147899,26.5427692 22.9038125,26.5778462 L22.9038125,26.5778462 Z M22.7952578,29.9156923 C22.0475724,29.1618462 21.6365284,28.16 21.6365284,27.0947692 C21.6365284,27.0670769 10.2797599,27.0116923 10.2797599,27.0116923 C10.3011049,28.0609231 9.91628478,29.1169231 9.12529945,29.9163077 C8.37700416,30.6701538 7.38476583,31.0843077 6.32971216,31.0843077 C5.27465849,31.0843077 4.2818103,30.6689231 3.53473472,29.9156923 C2.74313954,29.1169231 2.35831939,28.0609231 2.3796644,27.0116923 L0.64096035,27.0116923 C0.304318949,27.0116923 0.0311027382,26.7366154 0.0311027382,26.3963077 L0.0311027382,24.6763077 C0.010977437,24.6147692 0,24.5501538 0,24.4824615 C0,24.4147692 0.010977437,24.3495385 0.0311027382,24.2886154 L0.0311027382,16.3870769 C0.0311027382,16.0467692 0.304318949,15.7716923 0.64096035,15.7716923 L1.77041665,15.7716923 L1.77041665,4.54830769 C1.77041665,4.20861538 2.04363286,3.93292308 2.38027426,3.93292308 L17.4779093,3.93292308 L17.4779093,2.61538462 C17.4779093,2.27569231 17.7505157,2 18.0877669,2 C25.3597091,2 31.3235067,8.30338462 31.7339409,16.2203077 C31.7485774,16.2732308 31.7565056,16.3292308 31.7565056,16.3870769 L31.7565056,17.7224615 C32.8097297,17.8633846 33.6244995,18.776 33.6244995,19.8763077 C33.6244995,20.9772308 32.8091198,21.8892308 31.7565056,22.0307692 L31.7565056,26.3963077 C31.7565056,26.7366154 31.4838992,27.0116923 31.146648,27.0116923 L29.5408929,27.0116923 C29.5622379,28.0609231 29.1774177,29.1169231 28.3858226,29.9163077 C27.638747,30.6695385 26.6465087,31.0843077 25.5908451,31.0843077 C24.5351816,31.0843077 23.5423334,30.6689231 22.7952578,29.9156923 Z" id="Fill-1" fill="#0076FF"></path>
                <path d="M10,0 L10,16.3870769" id="Stroke-3" stroke="#0076FF" stroke-width="1.0999999" stroke-linecap="round"></path>
                <path d="M3,7 L17.5011787,7" id="Stroke-5" stroke="#0076FF" stroke-width="1.0999999" stroke-linecap="round"></path>
                <path d="M7,1 L9.99196145,4.01907692" id="Stroke-7" stroke="#0076FF" stroke-width="1.0999999" stroke-linecap="round"></path>
                <path d="M12.9919614,1 L10,4.01907692" id="Stroke-9" stroke="#0076FF" stroke-width="1.0999999" stroke-linecap="round"></path>
            </g>
        </g>
    </g>
</svg>