<?xml version="1.0" encoding="UTF-8" standalone="no"?>
<svg width="38px" height="32px" viewBox="0 0 38 32" version="1.1" xmlns="http://www.w3.org/2000/svg" xmlns:xlink="http://www.w3.org/1999/xlink">
    <!-- Generator: Sketch 3.7.1 (28215) - http://www.bohemiancoding.com/sketch -->
    <title>Page 1</title>
    <desc>Created with Sketch.</desc>
    <defs></defs>
    <g id="Page-1" stroke="none" stroke-width="1" fill="none" fill-rule="evenodd">
        <g id="Desktop-HD" transform="translate(-701.000000, -1261.000000)" fill="#0076FF">
            <path d="M726.389031,1277.50645 L723.850806,1277.50645 C723.475602,1277.50645 723.172318,1277.2038 723.172318,1276.82938 C723.172318,1276.45495 723.475602,1276.1523 723.850806,1276.1523 L726.389031,1276.1523 C726.764235,1276.1523 727.067519,1276.45495 727.067519,1276.82938 C727.067519,1277.2038 726.764235,1277.50645 726.389031,1277.50645 L726.389031,1277.50645 Z M708.04203,1287.57391 C707.469386,1287.57391 707.003264,1288.03906 707.003264,1288.61051 C707.003264,1289.18196 707.469386,1289.64644 708.04203,1289.64644 C708.614674,1289.64644 709.080795,1289.18129 709.080795,1288.61051 C709.080795,1288.03906 708.614674,1287.57391 708.04203,1287.57391 L708.04203,1287.57391 Z M708.04203,1291.00127 C706.721013,1291.00127 705.646288,1289.92878 705.646288,1288.61119 C705.646288,1287.29292 706.721013,1286.22043 708.04203,1286.22043 C709.363046,1286.22043 710.437772,1287.29292 710.437772,1288.61119 C710.437772,1289.92878 709.363046,1291.00127 708.04203,1291.00127 L708.04203,1291.00127 Z M729.470725,1287.57391 C728.897402,1287.57391 728.431959,1288.03906 728.431959,1288.61051 C728.431959,1289.18196 728.898081,1289.64644 729.470725,1289.64644 C730.043369,1289.64644 730.508812,1289.18129 730.508812,1288.61051 C730.508812,1288.03906 730.043369,1287.57391 729.470725,1287.57391 L729.470725,1287.57391 Z M729.470725,1291.00127 C728.149708,1291.00127 727.074983,1289.92878 727.074983,1288.61119 C727.074983,1287.29292 728.149708,1286.22043 729.470725,1286.22043 C730.791063,1286.22043 731.865788,1287.29292 731.865788,1288.61119 C731.865788,1289.92878 730.791063,1291.00127 729.470725,1291.00127 L729.470725,1291.00127 Z M724.529295,1273.63899 L734.497644,1273.63899 C733.536226,1269.71195 731.183229,1266.40646 728.059469,1264.4084 C727.967873,1264.45445 727.865421,1264.48017 727.756863,1264.48085 L724.529295,1264.49575 L724.529295,1273.63899 L724.529295,1273.63899 Z M736.330241,1279.6819 L736.330241,1281.65558 C736.74819,1281.5222 737.051474,1281.13017 737.051474,1280.6684 C737.051474,1280.20731 736.74819,1279.81529 736.330241,1279.6819 L736.330241,1279.6819 Z M729.470725,1284.2217 C730.417216,1284.2217 731.316891,1284.51826 732.065264,1285.06601 C732.097153,1285.06128 732.130399,1285.05857 732.164323,1285.05857 L734.973265,1285.05857 L734.973265,1277.60463 C734.973265,1276.71495 734.90338,1275.84152 734.769718,1274.99314 L723.850806,1274.99314 C723.475602,1274.99314 723.172318,1274.69049 723.172318,1274.31607 L723.172318,1263.82138 C723.172318,1263.44899 723.474245,1263.14566 723.847414,1263.1443 L725.505639,1263.13685 C724.332533,1262.70488 723.089543,1262.4415 721.801093,1262.37243 L721.801093,1276.82938 C721.801093,1277.21802 721.469991,1277.51932 721.07986,1277.5051 L720.980801,1277.5051 C720.966553,1277.50578 720.952305,1277.50645 720.938056,1277.50645 L702.391579,1277.50645 L702.391579,1285.05857 L705.456989,1285.05857 C706.950342,1283.97186 709.134396,1283.97186 710.627749,1285.05857 L720.25889,1285.05857 L720.25889,1278.95472 C720.25889,1278.5803 720.562174,1278.27764 720.937378,1278.27764 C721.312582,1278.27764 721.615866,1278.5803 721.615866,1278.95472 L721.615866,1285.05857 L726.884327,1285.05857 C727.629986,1284.51487 728.527626,1284.2217 729.470725,1284.2217 L729.470725,1284.2217 Z M702.391579,1287.16495 L703.889682,1287.16495 C703.979242,1286.90631 704.094585,1286.65444 704.234354,1286.4134 L702.391579,1286.4134 L702.391579,1287.16495 Z M712.193699,1287.16495 L720.25889,1287.16495 L720.25889,1286.4134 L711.849027,1286.4134 C711.989474,1286.65444 712.104139,1286.90631 712.193699,1287.16495 L712.193699,1287.16495 Z M721.615866,1287.16495 L725.314306,1287.16495 C725.405902,1286.90428 725.521245,1286.65241 725.661013,1286.4134 L721.615866,1286.4134 L721.615866,1287.16495 Z M733.622394,1287.16495 L734.972586,1287.16495 L734.972586,1286.4134 L733.277722,1286.4134 C733.418169,1286.65444 733.532156,1286.90631 733.622394,1287.16495 L733.622394,1287.16495 Z M705.891222,1290.75617 C706.46658,1291.32965 707.230558,1291.64517 708.04203,1291.64517 C708.853502,1291.64517 709.61748,1291.32897 710.192838,1290.75617 C710.936461,1290.01341 711.213284,1288.97749 711.022629,1288.01672 C711.016522,1287.99369 711.011094,1287.97 711.007702,1287.9463 C710.886253,1287.40261 710.614857,1286.88735 710.192159,1286.46486 C710.123632,1286.39647 710.053069,1286.33215 709.979792,1286.27189 C709.969615,1286.26376 709.959438,1286.25564 709.949939,1286.24751 C709.411219,1285.81148 708.744944,1285.57585 708.04203,1285.57585 C707.229201,1285.57585 706.465901,1285.89137 705.891222,1286.46418 C704.705903,1287.64703 704.705903,1289.57264 705.891222,1290.75617 L705.891222,1290.75617 Z M726.481305,1288.04177 C726.446024,1288.22729 726.428383,1288.41754 726.428383,1288.60983 C726.428383,1289.4203 726.745237,1290.18268 727.319917,1290.75617 C727.894596,1291.32965 728.658574,1291.64517 729.470725,1291.64517 C730.282197,1291.64517 731.046174,1291.32965 731.620854,1290.75684 C732.36787,1290.01071 732.644014,1288.97072 732.449967,1288.00724 C732.445217,1287.99031 732.441825,1287.97271 732.438432,1287.95578 C732.31834,1287.4087 732.046266,1286.88938 731.620854,1286.46486 C731.046174,1285.89137 730.282875,1285.57585 729.470725,1285.57585 C728.657217,1285.57585 727.89324,1285.89137 727.320595,1286.46418 C726.912145,1286.87178 726.633965,1287.37349 726.507088,1287.91989 C726.502339,1287.96187 726.493518,1288.00317 726.481305,1288.04177 L726.481305,1288.04177 Z M726.360535,1291.71423 C725.528708,1290.88481 725.071407,1289.78253 725.071407,1288.61051 C725.071407,1288.58004 712.436598,1288.51911 712.436598,1288.51911 C712.460345,1289.67352 712.032219,1290.83539 711.15222,1291.71491 C710.319715,1292.54433 709.215814,1293 708.04203,1293 C706.868245,1293 705.763666,1292.54297 704.932518,1291.71423 C704.05184,1290.83539 703.623714,1289.67352 703.647461,1288.51911 L701.713091,1288.51911 C701.338566,1288.51911 701.034603,1288.21645 701.034603,1287.84203 L701.034603,1285.9496 C701.012213,1285.88189 701,1285.8108 701,1285.73632 C701,1285.66184 701.012213,1285.59007 701.034603,1285.52304 L701.034603,1276.82938 C701.034603,1276.45495 701.338566,1276.1523 701.713091,1276.1523 L720.25889,1276.1523 L720.444795,1261.67708 C720.444795,1261.30333 720.74808,1261 721.123284,1261 C729.213578,1261 735.848514,1267.9353 736.305137,1276.64589 C736.321421,1276.70412 736.330241,1276.76573 736.330241,1276.82938 L736.330241,1278.29863 C737.50199,1278.45368 738.408451,1279.45779 738.408451,1280.6684 C738.408451,1281.87969 737.501312,1282.88312 736.330241,1283.03885 L736.330241,1287.84203 C736.330241,1288.21645 736.026957,1288.51911 735.651753,1288.51911 L733.865293,1288.51911 C733.88904,1289.67352 733.460914,1290.83539 732.580236,1291.71491 C731.749088,1292.54365 730.645188,1293 729.470725,1293 C728.296262,1293 727.191683,1292.54297 726.360535,1291.71423 Z" id="Page-1"></path>
        </g>
    </g>
</svg>