<?xml version="1.0" encoding="UTF-8" standalone="no"?>
<svg width="28px" height="28px" viewBox="0 0 28 28" version="1.1" xmlns="http://www.w3.org/2000/svg" xmlns:xlink="http://www.w3.org/1999/xlink">
    <!-- Generator: sketchtool 3.7.1 (28215) - http://www.bohemiancoding.com/sketch -->
    <title>Twitter Icon</title>
    <desc>Created with sketchtool.</desc>
    <defs></defs>
    <g id="Page-1" stroke="none" stroke-width="1" fill="none" fill-rule="evenodd">
        <g id="Desktop-HD" transform="translate(-349.000000, -3172.000000)" fill="#FFFFFF">
            <path d="M368.23,3183.55 L368.24,3183.87 C368.24,3187.13 365.76,3190.88 361.23,3190.88 C359.84,3190.88 358.54,3190.47 357.45,3189.77 C357.64,3189.8 357.84,3189.81 358.04,3189.81 C359.19,3189.81 360.25,3189.41 361.1,3188.75 C360.02,3188.73 359.11,3188.02 358.8,3187.04 C358.95,3187.07 359.1,3187.09 359.26,3187.09 C359.48,3187.09 359.7,3187.06 359.91,3187 C358.78,3186.77 357.93,3185.78 357.93,3184.58 L357.93,3184.55 C358.26,3184.74 358.64,3184.85 359.05,3184.86 C358.39,3184.42 357.95,3183.66 357.95,3182.81 C357.95,3182.36 358.07,3181.94 358.29,3181.57 C359.5,3183.06 361.32,3184.04 363.36,3184.15 C363.32,3183.97 363.3,3183.78 363.3,3183.58 C363.3,3182.22 364.4,3181.12 365.76,3181.12 C366.47,3181.12 367.11,3181.42 367.56,3181.9 C368.12,3181.79 368.65,3181.58 369.13,3181.3 C368.94,3181.88 368.55,3182.36 368.04,3182.66 C368.54,3182.6 369.02,3182.47 369.46,3182.28 C369.13,3182.77 368.71,3183.2 368.23,3183.55 L368.23,3183.55 Z M363,3172 C355.27,3172 349,3178.27 349,3186 C349,3193.73 355.27,3200 363,3200 C370.73,3200 377,3193.73 377,3186 C377,3178.27 370.73,3172 363,3172 L363,3172 Z" id="Twitter-Icon"></path>
        </g>
    </g>
</svg>